<svg viewBox="0 0 231.039 231.039" xml:space="preserve" xmlns="http://www.w3.org/2000/svg" enable-background="new 0 0 231.039368 231.039368"><path d="M189.802 70.463v12c-.858 4.581-2.448 8.749-5.275 12.617-2.498 3.418-1.818 7.848-.942 11.614 3.488 15.009.81 29.707-1.498 44.466-1.357 8.675-2.975 17.308-4.03 26.03-.683 5.655-2.009 11.112-5.312 15.903-2.91 4.937-7.354 6.902-12.941 6.799-3.482-.063-6.967 0-10.45-.002-10.08-.008-12.638-1.72-16.503-10.996-1.739-4.153-2.509-8.489-2.489-12.995.01-2.076-.399-4.304-3.052-4.172-2.683.133-2.006 2.602-2.073 4.249-.183 4.591.288 9.226-1.023 13.74-1.799 9.92-8.727 16.82-19.14 18.736-9.381 1.727-18.268-.394-26.52-4.705-3.809-1.99-5.661-5.953-6.088-10.357-.156-6.149-1.173-12.23-1.418-18.38-.113-2.872-1.26-4.855-4.785-5.158-16.615-1.423-23.016-7.955-24.389-24.785-1.244-15.266-.415-30.531.37-45.789.189-3.656.058-7.317.158-10.973.293-10.845 4.677-19.049 16.523-20.868 1.965-.301 3.89-1.299 5.853-1.152 5.324.4 6.858-2.614 7.337-7.177.79-7.507 3.604-14.426 6.119-21.5 3.143-8.842 9.504-14.172 17.02-18.73 2.186-1.326 4.587-1.894 7.137-1.899 8.138-.3 16.296.624 24.411-.516h9c13.847 2.133 25.888 8.122 33.65 19.773 4.915 7.38 9.815 14.64 15.547 21.396 3.067 3.615 3.815 8.32 4.803 12.831z" fill="#010001" class="fill-010001"></path><path d="M189.802 203.464c-6.305 5.637-14.408 6.457-22.147 7.861-18.431 3.34-37.09 3.404-55.757 3.17-16.116-.203-31.948-2.408-47.608-6.062-.16-.038-.38.027-.488-.061-2.608-2.13-7.71-1.45-7.908-6.17-.207-5.012 4.623-4.582 7.613-6 3.232-1.535 6.748-2.183 10.25-2.816.824 6.379 4.81 9.343 10.67 11.48 12.025 4.387 22.885 3.819 33.373-4.193 4.105-3.137 4.152-7.213 5.066-11.315 3.55-2.15 7.346-1.386 11.116-.943 2.654 7.38 7.418 11.28 15.713 10.148 3.414-.466 6.945-.171 10.417-.08 5.012.137 9.023-1.5 11.532-6.062 6.722 1.17 13.915 1.275 18.158 8.043v3z" fill-rule="evenodd" clip-rule="evenodd" fill="#373b3c" class="fill-373b3c"></path><path d="M101.716 17.422c.17-.307.197-.627.086-.959h25c-3.728 2.095-7.759.723-11.639.936-4.468.246-8.963.036-13.447.023z" fill-rule="evenodd" clip-rule="evenodd" fill="#232323" class="fill-232323"></path><path d="M90.646 38.322c5.453-6.806 11.63-12.42 21.2-11.385 9.655 1.044 19.585-1.152 29 3.04 6.507 2.899 12.073 6.695 16.583 12.929-3.13.584-5.848.809-8.639.57-11.36-.973-22.54.255-33.52 3.146-5.994 1.578-10.115 5.88-10.932 11.767-1.56 11.25-1.39 22.45 4.044 33.056 4.924 9.611 13.723 12.695 23.212 14.132 11.763 1.78 23.092-1.74 34.35-4.546 6.086-1.517 5.99-1.9 5.758 4.489.374 8.404-1.556 16.401-3.993 24.37-2.933 9.593-9.684 14.448-19.143 15.952-8.91 1.418-17.841 2.106-26.686-.728-1.877-.6-3.95-.973-5.906-.91-10.742.346-15.55-6.936-19.432-15.146-7.258-15.352-8.971-32.002-9.976-48.586-.62-10.214-1.382-20.64 1.162-30.827 1.063-3.75 2.587-7.382 2.918-11.323z" fill-rule="evenodd" clip-rule="evenodd" fill="#ff0000" class="fill-e752be"></path><path d="M88.859 49.477c-2.762 17.392-1 34.745 1.19 51.972 1.327 10.451 3.95 20.965 9.18 30.19 3.248 5.728 7.31 11.206 15.984 11.143 8.077-.06 15.985 3.506 24.379 2.742 6.296-.574 12.526-1.21 18.187-4.225 3.996-2.126 6.505-5.686 7.882-9.889 2.527-7.703 4.832-15.475 5.198-23.67.033-.752.55-1.482.843-2.22 1.834 13.747 1.25 27.353-.579 41.146-1.542 11.628-6.614 22.655-5.206 34.835.707 6.119-1.652 7.894-7.772 8.473-2.149.203-4.326.128-6.49.128-7.353.006-10.273-3.017-9.908-10.55.136-2.803.86-5.575 1.11-8.38.148-1.646 1.43-1.528 2.379-2.062a275.907 275.907 0 0 0 9.03-5.289c.966-.592 1.764-1.453 3.013-2.504-2.954-1.15-5.431.07-7.895.102-8.494.111-16.955.035-25.342-1.731-6.96-1.465-9.338.614-10.704 7.524-1.282 6.484-.743 12.924-.446 19.379.12 2.638-.729 4.338-2.75 5.94-6.914 5.478-16.24 6.267-23.865 1.974-1.493-.84-2.002-1.799-2.228-3.477-4.427-32.917-4.835-65.997-3.768-99.104.25-7.739-1.5-15.67 1.433-23.256.293-.76.69-1.481 1.037-2.22 1.821-4.654 1.332-9.8 3.078-14.469.53-1.416.32-3.725 3.03-2.502z" fill-rule="evenodd" clip-rule="evenodd" fill="#ff0000" class="fill-a728b3 fill-ff0000"></path><path d="M69.66 90.498c.044 15.623-.006 31.248.184 46.87.071 5.806.638 11.613 1.12 17.407.21 2.52-.52 3.473-3.219 3.598-8.771.408-12.696-3.25-14.16-12-2.974-17.793-.68-35.477.349-53.2.036-.61.48-1.197.734-1.795 3.476-.274 6.831-1.314 10.309-1.6 1.64-.136 3.302-.711 4.682.72z" fill-rule="evenodd" clip-rule="evenodd" fill="#ff0000" class="fill-a628b2"></path><path d="M179.864 71.417c1.711 6.421-1.25 13.298-8.363 16.717-12.006 5.77-24.613 9.155-38.11 6.19-7.134-1.568-12.796-5.797-17.212-11.294-5.286-6.58-3.397-21.405 2.799-26.382 2.209 1.124 2.521 3.356 3.13 5.4 3.633 12.223 8.779 16.106 21.6 16.036 8.457-.045 16.83-1.198 25.213-2.193 4.086-.484 7.283-3.016 10.943-4.474z" fill-rule="evenodd" clip-rule="evenodd" fill="#4b646e" class="fill-4b646e"></path><path d="M179.864 71.417c-2.455 4.53-7.091 5.52-11.4 6.032-9.045 1.074-18.127 2.031-27.28 1.93-10.698-.118-16.99-4.827-19.866-15.13-.713-2.552-1.557-5.068-2.34-7.6 6.043-1.522 12.148-2.707 18.355-3.328 1.762-.566 3.15-.218 3.938 1.6.338 1.856-.966 3.089-1.74 4.526-1.706 3.166-.606 5.447 2.706 5.896 7.73 1.048 15.487 1.988 23.33 1.825 3.407-.07 3.698-2.815 4.801-4.942.963-1.057 2-1.767 3.414-.754 3.573 2.37 5.268 5.888 6.082 9.945z" fill-rule="evenodd" clip-rule="evenodd" fill="#98c7dd" class="fill-98c7dd"></path><path d="M69.66 90.498c-4.102.708-8.413.354-12.282 2.213-1.673.805-2.383.28-2.709-1.334.14-1.31.21-2.634.432-3.932 1.434-8.348 5.613-11.03 13.932-9.262 2.105.448 1.591 1.787 1.511 2.955-.21 3.126-.579 6.24-.885 9.36z" fill-rule="evenodd" clip-rule="evenodd" fill="#ff0000" class="fill-e453bd"></path><path d="M140.833 55.571c-.615-1.607-1.935-2.117-3.5-2.25 13.333-2.575 25.621-.477 36.45 8.15l-3.178 1.054c-7.422-3.25-14.998-5.847-23.252-5.815-2.215.008-4.674 1.088-6.52-1.139z" fill-rule="evenodd" clip-rule="evenodd" fill="#9cc5cf" class="fill-9cc5cf"></path><path d="M88.859 49.477c-3.73 2.687-3.418 6.936-3.985 10.76-.334 2.255.01 4.615-2.123 6.21.403-10 3.412-19.27 7.895-28.126.336 3.868.14 7.65-1.787 11.156z" fill-rule="evenodd" clip-rule="evenodd" fill="#ff0000" class="fill-9e2e9e"></path><path d="M140.833 55.571c7.014.179 13.967.126 20.908 2.069 3.557.995 6.17 2.795 8.866 4.884.623 4.182-.848 6.316-5.4 5.97-7.364-.56-14.798-.51-22.1-1.488-6.91-.927-7.903-4.83-3.164-10.247.325-.372.595-.79.89-1.188z" fill-rule="evenodd" clip-rule="evenodd" fill="#ffffff" class="fill-fbfdfd"></path></svg>